<mxfile host="65bd71144e">
    <diagram id="FAM2p52OCLmgIIgEwshi" name="Page-1">
        <mxGraphModel dx="1002" dy="707" grid="1" gridSize="10" guides="1" tooltips="1" connect="1" arrows="1" fold="1" page="1" pageScale="1" pageWidth="850" pageHeight="1100" math="0" shadow="0">
            <root>
                <mxCell id="0"/>
                <mxCell id="1" parent="0"/>
                <mxCell id="2" value="Docker container&amp;nbsp;&lt;div&gt;- git clone&amp;nbsp;&amp;nbsp;&lt;/div&gt;&lt;div&gt;- project build&amp;nbsp;&lt;/div&gt;" style="whiteSpace=wrap;html=1;aspect=fixed;" vertex="1" parent="1">
                    <mxGeometry x="385" y="30" width="80" height="80" as="geometry"/>
                </mxCell>
                <mxCell id="10" style="edgeStyle=none;html=1;exitX=1;exitY=0.5;exitDx=0;exitDy=0;entryX=0;entryY=0.5;entryDx=0;entryDy=0;" edge="1" parent="1" source="3" target="7">
                    <mxGeometry relative="1" as="geometry"/>
                </mxCell>
                <mxCell id="12" style="edgeStyle=none;html=1;exitX=1;exitY=0.5;exitDx=0;exitDy=0;entryX=0;entryY=0.5;entryDx=0;entryDy=0;" edge="1" parent="1" source="3" target="8">
                    <mxGeometry relative="1" as="geometry"/>
                </mxCell>
                <mxCell id="3" value="Backend&lt;div&gt;- request from frontend&amp;nbsp;&lt;/div&gt;" style="whiteSpace=wrap;html=1;aspect=fixed;" vertex="1" parent="1">
                    <mxGeometry x="40" y="240" width="120" height="120" as="geometry"/>
                </mxCell>
                <mxCell id="5" value="Reverse Proxy : Nginx" style="edgeStyle=none;html=1;exitX=0.5;exitY=1;exitDx=0;exitDy=0;entryX=0.5;entryY=0;entryDx=0;entryDy=0;" edge="1" parent="1" source="4" target="3">
                    <mxGeometry relative="1" as="geometry"/>
                </mxCell>
                <mxCell id="4" value="Frontend&amp;nbsp;&lt;span style=&quot;background-color: transparent;&quot;&gt;&amp;nbsp;&lt;/span&gt;&lt;div&gt;- create Java/python/nodejs Container&amp;nbsp;&lt;/div&gt;&lt;div&gt;- on/Off container&amp;nbsp;&lt;/div&gt;&lt;div&gt;&lt;span style=&quot;color: rgb(63, 63, 63);&quot;&gt;- Auth&lt;/span&gt;&lt;/div&gt;&lt;div&gt;- logs&lt;/div&gt;" style="whiteSpace=wrap;html=1;aspect=fixed;" vertex="1" parent="1">
                    <mxGeometry x="40" y="60" width="120" height="120" as="geometry"/>
                </mxCell>
                <mxCell id="7" value="Docker container&amp;nbsp;&lt;div&gt;- git clone&amp;nbsp;&amp;nbsp;&lt;/div&gt;&lt;div&gt;- project build&amp;nbsp;&lt;/div&gt;" style="whiteSpace=wrap;html=1;aspect=fixed;" vertex="1" parent="1">
                    <mxGeometry x="385" y="180" width="80" height="80" as="geometry"/>
                </mxCell>
                <mxCell id="8" value="Docker container&amp;nbsp;&lt;div&gt;- git clone&amp;nbsp;&amp;nbsp;&lt;/div&gt;&lt;div&gt;- project build&amp;nbsp;&lt;/div&gt;" style="whiteSpace=wrap;html=1;aspect=fixed;" vertex="1" parent="1">
                    <mxGeometry x="385" y="290" width="80" height="80" as="geometry"/>
                </mxCell>
                <mxCell id="9" style="edgeStyle=none;html=1;exitX=1;exitY=0.5;exitDx=0;exitDy=0;entryX=-0.017;entryY=0.635;entryDx=0;entryDy=0;entryPerimeter=0;" edge="1" parent="1" source="3" target="2">
                    <mxGeometry relative="1" as="geometry"/>
                </mxCell>
            </root>
        </mxGraphModel>
    </diagram>
</mxfile>